<?xml version="1.0" encoding="utf-8"?>
<!-- Generated by IcoMoon.io -->
<!DOCTYPE svg PUBLIC "-//W3C//DTD SVG 1.1//EN" "http://www.w3.org/Graphics/SVG/1.1/DTD/svg11.dtd">
<svg version="1.1" xmlns="http://www.w3.org/2000/svg" xmlns:xlink="http://www.w3.org/1999/xlink" width="1024" height="1024" viewBox="0 0 1024 1024">
<path fill="rgb(0, 0, 0)" d="M799.241 314.056c66.734-23.604 138.153-15.707 207.49-15.447-1.649 3.558-5.033 10.761-6.682 14.319-42.869 9.285-84.784 31.848-104.049 73.242-12.583 4.426-25.426 8.071-38.357 11.195-35.927 7.723-63.436 34.191-82.267 64.477-10.934 20.48-36.881 20.567-55.192 31.067-36.014 20.48-61.18 56.667-72.548 96.065-4.686 29.852 12.236 57.882 8.504 87.3-3.037 2.083-9.025 6.248-12.062 8.331 0.781 6.335 2.43 18.918 3.211 25.253-123.921 3.905-247.669-19.005-362.479-65.519-67.775-28.898-134.682-64.911-185.014-119.843-28.984-33.671-56.494-68.816-80.879-105.958 51.374 13.711 101.185 32.889 153.426 43.65 19.265 1.736 38.53 2.951 57.882 3.037 25.34 23.083 43.65 55.799 78.275 66.56 0.607-12.67 1.128-25.253 1.562-37.836 9.285-40.005 30.807-77.928 65.345-101.098 26.294-16.315 44.692-41.22 66.3-62.655 6.682 28.551 35.406 38.009 59.531 46.948 28.377 10.24 54.758 27.162 72.287 52.068 3.211 0.26 9.546 0.781 12.757 1.041 58.403-57.882 132.339-99.102 212.957-116.198z"></path>
<path fill="rgb(255, 255, 255)" d="M410.555 568.233c16.488-21.521 30.633-47.555 56.494-59.184 27.249-6.248 53.977 19.092 49.812 46.601-9.546 6.769-19.005 13.624-28.377 20.48-27.249-1.041-54.584-1.996-81.833 1.041-4.426 16.922-12.409 32.542-23.691 45.993-10.327-7.984-20.74-15.967-31.067-23.951-1.128-11.108-2.256-22.216-3.211-33.323 20.654 0.347 41.22 1.302 61.874 2.343z"></path>
</svg>
